<svg width="160" height="58" viewBox="0 0 160 58" fill="none" xmlns="http://www.w3.org/2000/svg">
<g clip-path="url(#clip0_2003_3)">
<path d="M25.0382 27.7198C25.0382 27.7198 25.281 27.6543 25.7625 27.6119C26.6718 27.531 28.4401 27.531 31.0522 28.2129C31.0522 28.2129 28.6443 26.0786 25.0344 25.204C24.6838 25.1192 24.3178 25.046 23.9479 24.9883C23.9479 24.9883 22.7459 28.6521 21.0508 29.3649C19.3556 30.0737 19.5213 26.8491 22.1449 24.2794C22.6612 23.7785 23.0734 23.216 23.4047 22.6459C24.7685 20.2996 24.7685 17.7222 24.7685 17.7222C24.7685 17.7222 23.293 19.0899 22.2528 19.1438C20.9121 19.2132 26.5061 15.8691 26.6255 12.2553C26.7372 8.97284 24.6568 9.68558 24.2754 6.40314C24.2754 6.40314 25.9513 4.77732 24.9304 2.73928C23.7283 0.33138 21.2665 0.990181 20.1184 1.91867C20.1184 1.91867 18.3693 0.00390625 15.5261 0.00390625C12.6828 0.00390625 10.9337 1.91867 10.9337 1.91867C9.78564 0.990181 7.32381 0.33138 6.12179 2.73928C5.10084 4.77732 6.77673 6.40314 6.77673 6.40314C6.39532 9.68558 4.3149 8.97284 4.42277 12.2553C4.54221 15.8691 10.1401 19.2132 8.79937 19.1438C7.76301 19.0899 6.2836 17.7222 6.2836 17.7222C6.2836 17.7222 6.2836 20.3497 7.68596 22.7113C8.01343 23.2623 8.41411 23.7978 8.90724 24.2794C9.88581 25.2387 10.5215 26.2866 10.8451 27.1881C11.1071 27.9086 11.1687 28.5365 11.0493 28.9488C10.9183 29.4072 10.56 29.5999 10.0014 29.3649C8.30623 28.656 7.10421 24.9883 7.10421 24.9883C6.76903 25.0383 6.44541 25.1038 6.12564 25.1809C2.45022 26.0362 -0.00390625 28.2168 -0.00390625 28.2168C2.69679 27.5117 4.49212 27.5387 5.37437 27.6273C5.32814 27.8739 5.29347 28.1282 5.27035 28.3824C2.97418 30.6131 2.07267 33.4101 2.07267 33.4101C3.06665 32.7821 4.19547 32.3738 5.22412 32.1041C5.61709 35.3827 7.11577 37.9909 8.30623 40.3025C9.45817 42.5293 10.325 44.4787 9.64695 46.486C9.64695 46.486 12.1203 44.3978 10.5254 38.8616C10.4791 38.6998 10.4367 38.538 10.3982 38.3839C10.3597 38.2336 10.3289 38.0911 10.298 37.9485C9.32333 33.2368 12.4979 32.5972 13.8425 32.813C14.5783 32.9324 15.3527 33.3523 15.946 34.0265C16.9824 35.2093 17.4717 37.1819 16.2658 39.74C15.8497 40.6184 15.2371 41.5662 14.3741 42.5755C9.56604 48.1965 11.1148 54.2221 12.3361 57.0345C12.3361 57.0345 11.1572 49.0287 15.5685 45.4265C19.2593 42.4099 21.3089 46.3974 19.8757 49.1289C18.4425 51.8604 13.9773 52.3035 13.9773 52.3035C13.9773 52.3035 19.1899 54.1874 22.1025 49.9033C24.7647 45.9928 20.6385 42.7759 20.8157 38.3338C20.8196 38.2336 20.8312 38.1373 20.8427 38.0371C20.862 37.8984 20.8812 37.7597 20.8889 37.6211C20.9737 36.4075 21.9677 35.5137 22.8731 35.7024C23.0965 35.7487 23.3161 35.8604 23.5087 36.0453C24.2947 36.7889 24.3717 38.5881 23.5434 40.4142C24.0057 39.4125 25.5198 38.5649 25.855 32.1079C26.8759 32.3738 27.9894 32.7821 28.9718 33.4024C28.9718 33.4024 28.0972 30.6902 25.8743 28.4749C25.6161 28.2129 25.3349 27.9586 25.0344 27.7159L25.0382 27.7198ZM22.457 21.047C22.6689 21.1819 22.9732 21.4438 22.9925 21.7135C23.0156 22.0179 22.665 22.1566 22.4223 22.1951C21.8983 22.276 21.3744 22.1296 21.097 21.6442C20.9814 21.44 20.8658 21.1009 20.9737 20.8698C21.0353 20.7388 21.1509 20.6849 21.2819 20.6695C21.6633 20.6348 22.141 20.8428 22.4531 21.0432L22.457 21.047ZM21.7018 2.55435C21.7442 2.31934 22.0524 2.30778 22.2836 2.35787C22.5186 2.40795 22.7536 2.5505 22.9809 2.74698C23.0079 2.72772 23.0349 2.7046 23.0657 2.68919C23.1851 2.61214 23.3084 2.57361 23.424 2.61214C23.6205 2.68149 23.6705 2.96273 23.6628 3.16307C23.659 3.25938 23.6359 3.348 23.6012 3.44046C23.6705 3.53677 23.736 3.63309 23.7977 3.73326C23.9942 4.04917 24.2215 4.53846 24.0134 4.64633C23.8285 4.7388 23.4009 4.48838 23.1312 4.28804C23.0888 4.25722 23.0426 4.22254 22.9963 4.18402C22.9193 4.24181 22.8384 4.29574 22.7536 4.34198C22.5225 4.47682 22.1565 4.61166 22.0409 4.41132C21.9407 4.23025 22.0871 3.87966 22.2142 3.66391C22.2374 3.62538 22.2605 3.58686 22.2874 3.54448C22.1256 3.37496 21.9792 3.19774 21.8637 3.02437C21.7558 2.85871 21.6864 2.69305 21.7096 2.5582L21.7018 2.55435ZM7.25446 3.72941C7.3161 3.62924 7.3816 3.53292 7.45095 3.43661C7.42013 3.34799 7.39316 3.25553 7.3893 3.15922C7.37775 2.95888 7.42783 2.68149 7.62817 2.60829C7.74375 2.56976 7.86703 2.60829 7.98646 2.68534C8.01343 2.7046 8.04425 2.72387 8.07122 2.74313C8.29853 2.54665 8.53354 2.40795 8.76855 2.35401C8.99585 2.30393 9.30792 2.31164 9.3503 2.5505C9.37341 2.68534 9.30406 2.851 9.19619 3.01667C9.08061 3.19389 8.93036 3.37111 8.7724 3.53677C8.79937 3.57915 8.82248 3.61768 8.8456 3.65621C8.96888 3.87581 9.11914 4.2264 9.01897 4.40362C8.90339 4.60395 8.53739 4.46526 8.30623 4.33427C8.22147 4.28419 8.14057 4.23025 8.06352 4.17631C8.01728 4.21099 7.97105 4.24951 7.92867 4.28033C7.65899 4.48067 7.23135 4.73109 7.04642 4.63863C6.83838 4.53461 7.06568 4.04147 7.26217 3.72555L7.25446 3.72941ZM15.5261 15.9654C12.4093 15.9654 9.73171 14.8173 7.97876 12.9064C6.22966 10.9916 6.61107 13.6153 6.61107 13.6153C6.61107 13.6153 5.57471 12.5211 5.90219 11.2613C6.22966 10.0054 9.45432 14.2702 15.5261 14.2702C21.5978 14.2702 24.8186 10.0054 25.15 11.2613C25.4774 12.5173 24.4411 13.6153 24.4411 13.6153C24.4411 13.6153 24.8225 10.9916 23.0734 12.9064C21.3243 14.8211 18.6467 15.9654 15.5299 15.9654H15.5261ZM18.1844 25.046C17.5757 25.0961 17.2983 24.3911 17.2251 23.9018C17.0671 22.8577 17.3561 21.8021 18.3269 21.2551C18.7392 21.0239 19.4134 20.7889 19.8757 21.0123C20.1377 21.1395 20.2494 21.3668 20.2725 21.6288C20.3457 22.3877 19.9219 23.347 19.5213 23.9712C19.2516 24.395 18.7315 24.9998 18.1882 25.0422L18.1844 25.046Z" fill="white"/>
<path d="M57.2541 17.5834H63.7997V24.129H50.7046V26.3212H63.7997V39.4163H57.2541V41.6084H48.5163V39.4163H41.9707V32.8707H55.0658V30.6785H41.9707V17.5834H48.5163V15.4182H57.2541V17.5834Z" fill="white"/>
<path d="M87.8517 26.3213L85.6595 28.5134L87.8517 30.6786V39.4164H66.0188V17.5835H87.8517V26.3213ZM79.1101 24.133H74.7527V26.3251H79.1101V24.133ZM79.1101 30.6786H74.7527V32.8708H79.1101V30.6786Z" fill="white"/>
<path d="M98.8047 32.8708H103.162V17.5835H111.9V39.4164H90.0669V17.5835H98.8047V32.8708Z" fill="white"/>
<path d="M135.948 27.4039L133.756 29.596L135.948 31.7882V39.4164H127.21V35.0629L125.018 32.8708H122.853V39.4164H114.115V17.5835H135.948V27.4039ZM127.21 24.133H122.853V26.3251H127.21V24.133Z" fill="white"/>
<path d="M138.167 39.4164V17.5835H160V39.4164H151.262V24.1291H146.905V39.4164H138.167Z" fill="white"/>
</g>
<defs>
<clipPath id="clip0_2003_3">
<rect width="160" height="57.0306" fill="white"/>
</clipPath>
</defs>
</svg>
