<svg width="48" height="45" viewBox="0 0 48 45" fill="none" xmlns="http://www.w3.org/2000/svg">
<path d="M47.2998 42.3743C45.7309 39.94 43.0412 37.4993 42.2941 34.8471C41.547 32.1948 38.6892 30.3955 38.2659 30.1838C37.8425 29.9721 36.3607 28.4903 35.8315 25.9438C35.3023 23.3974 30.9565 18.8524 30.9565 18.8524C30.9565 18.8524 36.2549 12.8007 36.9958 11.4248C37.7367 10.0488 39.0068 10.2605 40.4948 8.56078C41.9828 6.86108 47.6983 1.14559 47.2749 0.927678C46.8516 0.715993 40.4948 0 40.4948 0C40.4948 0 39.648 2.4157 38.3779 3.79165C37.1078 5.1676 36.7903 4.10918 36.1552 5.48513C35.5202 6.86108 27.7812 14.7059 27.7812 14.7059C27.7812 14.7059 23.2238 9.09 21.2128 7.39652C19.1956 5.70304 17.7138 0.193007 17.7138 0.193007C17.7138 0.193007 14.5323 -0.230363 13.4738 0.193007C12.4154 0.616376 9.4456 0.298849 7.32875 0.722219C5.20567 1.14559 -0.304359 -0.653733 0.0131685 0.722219C0.330696 2.09817 3.72388 5.91472 5.09983 7.18483C6.47578 8.45494 7.75212 12.589 8.17549 13.8591C8.59886 15.1292 16.6553 23.1857 16.3378 24.5617C16.0203 25.9376 14.9619 26.6785 12.9446 28.8016C10.9336 30.9184 9.86897 32.4065 8.38717 34.5233C6.90538 36.6402 6.05864 35.8993 5.31152 38.6574C4.57062 41.4155 0.0131685 44.3853 0.0131685 44.3853C0.0131685 44.3853 2.23586 44.1736 4.25309 44.5223C6.2641 44.871 6.79954 44.5223 6.79954 44.5223C6.79954 44.5223 8.06964 43.2211 8.28133 42.4739C8.49301 41.733 10.8278 40.0396 11.6745 38.7632C12.5213 37.4869 13.6855 36.0051 15.0677 35.1584C16.4499 34.3116 20.1544 29.5425 20.366 30.1775C20.5777 30.8126 22.9125 32.5061 23.9522 33.7824C24.992 35.0525 29.5868 43.744 29.5868 43.744C29.5868 43.744 34.7793 44.9083 37.1141 44.3791C39.4426 43.8499 42.5182 43.5324 45.0647 43.9557C47.6111 44.3791 48.8812 44.8025 47.3123 42.3681L47.2998 42.3743ZM33.0796 40.4629C33.0796 40.4629 30.8569 35.9055 28.9455 34.1062C27.0403 32.3068 27.5696 29.4429 25.9757 27.326C24.3881 25.2092 19.9364 21.3926 18.6663 18.8586C17.3962 16.3246 14.4264 13.1245 12.7329 11.8544C11.0395 10.5842 9.97481 6.02679 9.97481 6.02679L14.4264 5.39174C14.4264 5.39174 17.1845 9.63166 18.0313 10.5842C18.878 11.5368 23.1179 16.8352 23.1179 16.8352C23.1179 16.8352 23.6472 18.4228 23.946 18.8586C24.2449 19.2945 31.0686 27.9611 31.5978 28.8078C32.127 29.6546 39.013 39.9337 39.013 39.9337L33.0796 40.4629Z" fill="white"/>
</svg>
